<svg width="97" height="28" viewBox="0 0 97 28" fill="none" xmlns="http://www.w3.org/2000/svg">
<path d="M31.1371 10.918C28.4026 10.918 26.2542 13.3658 26.2542 16.5059C26.2542 19.6461 28.305 22.1186 31.1371 22.1186C33.9692 22.1186 36.0444 19.745 36.0444 16.5059C36.0444 13.2669 33.8959 10.918 31.1371 10.918ZM34.018 16.4812C34.018 18.6323 32.8217 20.1406 31.1127 20.1406C29.4036 20.1406 28.2317 18.6323 28.2317 16.4812C28.2317 14.3301 29.428 12.8713 31.1127 12.8713C32.7973 12.8713 34.018 14.4043 34.018 16.4812Z" fill="#FF500A"/>
<path d="M42.1953 10.9688H41.8291C40.8037 10.9688 39.7783 11.5622 39.1435 12.1556V11.8094C39.0946 11.3891 38.7773 11.0924 38.3866 11.0924H37.8495C37.4345 11.0924 37.1171 11.4138 37.1171 11.8341V21.2051C37.1171 21.6254 37.4345 21.9469 37.8251 21.9469H38.4355C38.8749 21.9469 39.1679 21.6502 39.1679 21.2051V14.6528C39.6318 13.6391 40.6084 13.0457 41.8047 13.0457H42.1953C42.6348 13.0457 42.9766 12.7243 42.9766 12.3287V11.7105C42.9766 11.2902 42.6592 10.9688 42.2197 10.9688H42.1953Z" fill="#FF500A"/>
<path d="M45.2222 11.0938H44.6362C44.2317 11.0938 43.9038 11.4258 43.9038 11.8355V21.2065C43.9038 21.6161 44.2317 21.9482 44.6362 21.9482H45.2222C45.6267 21.9482 45.9546 21.6161 45.9546 21.2065V11.8355C45.9546 11.4258 45.6267 11.0938 45.2222 11.0938Z" fill="#FF500A"/>
<path d="M44.9071 6.44531C44.0282 6.44531 43.369 7.1129 43.369 8.02774C43.369 8.94259 44.0282 9.58545 44.9071 9.58545C45.7861 9.58545 46.4697 8.91786 46.4697 8.02774C46.4697 7.13763 45.7861 6.44531 44.9071 6.44531Z" fill="#FF500A"/>
<path d="M55.8679 11.091H55.3796C55.0134 11.091 54.6715 11.3878 54.6471 11.7834V11.907C53.8903 11.2889 52.9381 10.918 52.0836 10.918C49.2271 10.918 47.2251 13.2174 47.2251 16.5059C47.2251 19.7944 49.1783 22.0939 52.0836 22.0939C52.9381 22.0939 53.9147 21.6983 54.5983 21.1049V21.6983C54.5983 23.528 53.0602 24.1708 51.7174 24.1708C50.6187 24.1708 49.8863 23.701 49.7154 22.8604C49.6177 22.4648 49.3003 22.1928 48.8853 22.1928H48.3726C48.1529 22.1928 47.9575 22.267 47.8355 22.4153C47.7134 22.5637 47.6401 22.7368 47.6646 22.9593C47.7866 24.517 49.0806 26.0994 51.7174 26.0994C54.5495 26.0994 56.6003 24.2203 56.6003 21.6241V11.8081C56.6003 11.3878 56.2829 11.0663 55.8679 11.0663V11.091ZM54.5983 14.3795V18.3356C54.2321 19.2505 53.2799 20.1653 52.0836 20.1653C50.399 20.1653 49.3003 18.7312 49.3003 16.5307C49.3003 14.3301 50.4478 12.8218 52.108 12.8218C53.1578 12.8218 54.1588 13.613 54.6227 14.4043L54.5983 14.3795Z" fill="#FF500A"/>
<path d="M59.7263 11.0938H59.1404C58.7359 11.0938 58.408 11.4258 58.408 11.8355V21.2065C58.408 21.6161 58.7359 21.9482 59.1404 21.9482H59.7263C60.1309 21.9482 60.4588 21.6161 60.4588 21.2065V11.8355C60.4588 11.4258 60.1309 11.0938 59.7263 11.0938Z" fill="#FF500A"/>
<path d="M59.4338 6.44531C58.5792 6.44531 57.8956 7.13763 57.8956 8.02774C57.8956 8.91786 58.5548 9.58545 59.4338 9.58545C60.3127 9.58545 60.9963 8.91786 60.9963 8.02774C60.9963 7.13763 60.3127 6.44531 59.4338 6.44531Z" fill="#FF500A"/>
<path d="M67.2709 10.918C66.221 10.918 65.1956 11.2889 64.4388 11.9317V11.7834C64.3899 11.3878 64.097 11.091 63.7063 11.091H63.1448C62.7542 11.091 62.4368 11.4125 62.4368 11.8328V21.2038C62.4368 21.6241 62.7542 21.9455 63.1448 21.9455H63.7063C64.1214 21.9455 64.4632 21.5994 64.4632 21.2038V14.6762C64.805 13.7861 65.8792 12.8218 67.0755 12.8218C68.5893 12.8218 69.4193 13.6872 69.4193 15.2449V21.2285C69.4193 21.6241 69.7611 21.9703 70.1518 21.9703H70.7377C71.1528 21.9703 71.4702 21.6488 71.4702 21.2285V15.2449C71.4702 12.6735 69.7856 10.9427 67.2953 10.9427L67.2709 10.918Z" fill="#FF500A"/>
<path d="M81.6754 19.9428C81.3824 19.9428 81.2115 19.7697 81.2115 19.473V15.0224C81.2115 12.5993 79.4781 10.918 76.9634 10.918C74.8393 10.918 73.1791 12.179 72.642 14.1817C72.5687 14.4043 72.642 14.6268 72.7396 14.7999C72.8617 14.9729 73.0814 15.0719 73.3256 15.0719H73.8139C74.2777 15.0719 74.6196 14.7999 74.7416 14.3548C74.9858 13.3658 75.8159 12.7724 76.9389 12.7724C78.3062 12.7724 79.2095 13.6378 79.2095 14.9977V15.0966C78.9409 15.4427 78.4526 15.4922 77.769 15.5416C77.5493 15.5416 77.2807 15.5416 77.0122 15.5416C76.7192 15.5416 76.4262 15.5416 76.1577 15.5416C73.9604 15.5911 72.5199 16.8274 72.5199 18.7065C72.5199 20.5856 73.9359 21.9208 76.1577 22.0197C76.3774 22.0197 76.5727 22.0197 76.7436 22.0197C76.9145 22.0197 77.0854 22.0197 77.3052 22.0197C77.9888 21.9703 78.9409 21.6736 79.649 20.9812C80.0152 21.5499 80.6744 21.8961 81.3824 21.8961H81.6998C82.1392 21.8961 82.4566 21.5747 82.4566 21.179V20.6104C82.4566 20.19 82.1392 19.8933 81.6998 19.8933L81.6754 19.9428ZM79.2339 17.0746V18.6076C79.063 19.473 78.3306 20.0664 77.3052 20.1159C76.8901 20.1159 76.646 20.1159 76.2065 20.1159C75.1567 20.0664 74.5219 19.5472 74.5219 18.7312C74.5219 18.212 74.6928 17.5197 76.1577 17.4702C76.7436 17.4455 77.2807 17.4702 77.8423 17.4208C78.355 17.3713 78.7944 17.3219 79.2339 17.0746Z" fill="#FF500A"/>
<path d="M86.4855 19.9688H85.8508C85.5578 19.9688 85.1916 19.8699 85.1916 19.3506V7.06208C85.1916 6.64174 84.8742 6.32031 84.4835 6.32031H83.8976C83.4825 6.32031 83.1652 6.64174 83.1652 7.06208V19.3012C83.1652 20.9083 84.2394 21.9221 85.8752 21.9221H86.4611C86.8762 21.9221 87.1936 21.6254 87.1936 21.2051V20.6364C87.1936 20.2408 86.8762 19.9441 86.4611 19.9441L86.4855 19.9688Z" fill="#FF500A"/>
<path d="M93.3194 15.7394L92.9532 15.6653C92.2696 15.5169 91.4639 15.3686 90.8291 15.1708C90.5849 15.1213 89.7793 14.8493 89.7793 14.1076C89.7793 13.2916 90.5361 12.7477 91.708 12.7477C92.9532 12.7477 93.4903 13.5389 93.6124 14.0087C93.71 14.3548 94.0518 14.6268 94.418 14.6268H95.0528C95.2481 14.6268 95.419 14.5526 95.5411 14.4043C95.6632 14.2559 95.712 14.0581 95.6632 13.8603C95.3214 12.1048 93.7344 10.918 91.708 10.918C89.4131 10.918 87.8017 12.2284 87.8017 14.1323C87.8017 15.5169 88.705 16.6048 90.2431 17.0746C91.0244 17.2971 91.8789 17.4949 92.9043 17.6928C93.3194 17.7669 94.0274 17.9895 94.0274 18.7559C94.0274 19.1021 93.9053 19.3988 93.6612 19.6461C93.2706 20.0417 92.5869 20.2395 91.7568 20.2395C91.7568 20.2395 91.708 20.2395 91.6836 20.2395C90.2187 20.2395 89.4863 19.3988 89.413 18.6323C89.3886 18.212 89.0712 17.9153 88.6562 17.9153H87.997C87.8017 17.9153 87.6308 17.9895 87.5087 18.1131C87.3866 18.2614 87.3134 18.4345 87.3378 18.657C87.4843 20.6845 89.2421 22.1186 91.6348 22.1186C94.1983 22.1186 96.005 20.734 96.005 18.7312C96.005 17.1735 94.9796 16.0609 93.295 15.7394H93.3194Z" fill="#FF500A"/>
<path d="M21.7838 7.85616C20.6608 8.42485 18.8297 9.88365 16.5591 12.9496C16.9742 10.6007 16.8521 6.66934 13.5317 6.89187C11.7738 7.01549 9.50329 9.01826 6.40264 14.1612C6.6712 11.2683 6.76886 9.21606 5.52371 8.15287C4.6692 7.4111 2.66721 7.13912 1.47089 8.72155C0.274575 10.304 -0.0184007 13.4194 0.103672 16.6832C0.347818 23.5074 2.74045 25.5596 4.8401 25.5596C8.57554 25.5596 9.11266 20.9112 11.6762 16.7821C11.5785 18.2656 11.6762 19.576 11.9447 20.4909C13.0678 24.0514 16.9009 24.3233 18.6343 20.7134C21.1002 15.62 21.7838 14.4084 24.2741 10.749C25.9099 8.32595 24.0056 6.76824 21.8082 7.88089L21.7838 7.85616Z" fill="#FF500A"/>
</svg>
